<?xml version="1.0" encoding="iso-8859-1"?>
<!-- Generator: Adobe Illustrator 19.0.0, SVG Export Plug-In . SVG Version: 6.00 Build 0)  -->
<svg version="1.1" id="Layer_1" xmlns="http://www.w3.org/2000/svg" xmlns:xlink="http://www.w3.org/1999/xlink" x="0px" y="0px"
	 viewBox="0 0 512 512" style="enable-background:new 0 0 512 512;" xml:space="preserve">
<path style="fill:#FFFFFF;" d="M153.412,510c-20.744-0.048-37.552-16.856-37.6-37.6V39.632c0.048-20.744,16.856-37.552,37.6-37.6
	H358.58c20.744,0.048,37.552,16.856,37.6,37.6v432.736c-0.048,20.76-16.88,37.576-37.64,37.6L153.412,510z"/>
<path style="fill:#AAC1CE;" d="M358.58,4c19.672,0.024,35.608,15.96,35.632,35.632v432.736c-0.032,19.664-15.968,35.6-35.632,35.632
	H153.412c-19.672-0.024-35.608-15.96-35.632-35.632V39.632C117.804,19.96,133.74,4.024,153.412,4H358.58 M358.58,0H153.412
	c-21.864,0.064-39.568,17.768-39.632,39.632v432.736c0.064,21.864,17.768,39.568,39.632,39.632H358.58
	c21.864-0.064,39.568-17.768,39.64-39.632V39.632C398.156,17.768,380.444,0.056,358.58,0z"/>
<rect x="132.54" y="40.4" style="fill:#415E72;" width="246.912" height="403.76"/>
<g>
	<path style="fill:#AAC1CE;" d="M293.028,26.328H242.5c-2.28-0.008-4.12-1.848-4.128-4.128l0,0c0.008-2.28,1.848-4.12,4.128-4.128
		h50.528c2.28,0.008,4.12,1.848,4.128,4.128l0,0C297.148,24.48,295.3,26.32,293.028,26.328z"/>
	<circle style="fill:#AAC1CE;" cx="218.964" cy="22.2" r="4.128"/>
	<path style="fill:#AAC1CE;" d="M255.996,495.704c-10.784,0-19.52-8.736-19.52-19.52s8.736-19.52,19.52-19.52
		c10.784,0,19.52,8.736,19.52,19.52l0,0C275.5,486.96,266.764,495.688,255.996,495.704z M255.996,460.656
		c-8.568,0-15.52,6.952-15.52,15.52s6.952,15.52,15.52,15.52c8.568,0,15.52-6.952,15.52-15.52l0,0
		C271.5,467.608,264.556,460.664,255.996,460.656z"/>
</g>
<rect x="150.14" y="92.04" style="fill:#25B6D2;" width="40" height="40"/>
<rect x="207.38" y="92.04" style="fill:#FFFFFF;" width="40" height="40"/>
<rect x="264.636" y="92.04" style="fill:#25B6D2;" width="40" height="40"/>
<rect x="321.836" y="92.04" style="fill:#E04F5F;" width="40" height="40"/>
<rect x="150.14" y="157.144" style="fill:#FFFFFF;" width="40" height="40"/>
<rect x="207.38" y="157.144" style="fill:#25B6D2;" width="40" height="40"/>
<rect x="264.636" y="157.144" style="fill:#E04F5F;" width="40" height="40"/>
<rect x="321.836" y="157.144" style="fill:#25B6D2;" width="40" height="40"/>
<rect x="150.14" y="222.248" style="fill:#E04F5F;" width="40" height="40"/>
<g>
	<rect x="207.38" y="222.248" style="fill:#FFFFFF;" width="40" height="40"/>
	<rect x="264.636" y="222.248" style="fill:#FFFFFF;" width="40" height="40"/>
</g>
<g>
	<rect x="321.836" y="222.248" style="fill:#25B6D2;" width="40" height="40"/>
	<rect x="150.14" y="287.344" style="fill:#25B6D2;" width="40" height="40"/>
	<rect x="207.38" y="287.344" style="fill:#25B6D2;" width="40" height="40"/>
</g>
<rect x="264.636" y="287.344" style="fill:#E04F5F;" width="40" height="40"/>
<g>
	<rect x="321.836" y="287.344" style="fill:#FFFFFF;" width="40" height="40"/>
	<rect x="150.14" y="352.48" style="fill:#FFFFFF;" width="40" height="40"/>
</g>
<rect x="207.38" y="352.48" style="fill:#E04F5F;" width="40" height="40"/>
<g>
	<rect x="264.636" y="352.48" style="fill:#25B6D2;" width="40" height="40"/>
	<rect x="321.836" y="352.48" style="fill:#25B6D2;" width="40" height="40"/>
</g>
<g>
</g>
<g>
</g>
<g>
</g>
<g>
</g>
<g>
</g>
<g>
</g>
<g>
</g>
<g>
</g>
<g>
</g>
<g>
</g>
<g>
</g>
<g>
</g>
<g>
</g>
<g>
</g>
<g>
</g>
</svg>
