<?xml version="1.0" encoding="iso-8859-1"?>
<!-- Generator: Adobe Illustrator 19.0.0, SVG Export Plug-In . SVG Version: 6.00 Build 0)  -->
<svg version="1.1" id="Layer_1" xmlns="http://www.w3.org/2000/svg" xmlns:xlink="http://www.w3.org/1999/xlink" x="0px" y="0px"
	 viewBox="0 0 477.504 477.504" style="enable-background:new 0 0 477.504 477.504;" xml:space="preserve">
<path style="fill:#E84849;" d="M0,238.749C0,106.892,106.888,0.004,238.752,0.004s238.752,106.888,238.752,238.745
	c0,131.868-106.888,238.752-238.752,238.752S0,370.617,0,238.749z"/>
<path style="fill:#E79E2D;" d="M285.906,269.229l77.444-77.451c19.989-19.985-0.079-32.329-20.067-52.31L72.613,410.13
	c10.9,10.567,22.802,20.105,35.554,28.456l132.268-158.805C256.036,285.076,272.78,282.363,285.906,269.229z"/>
<path style="fill:#D68A28;" d="M72.613,410.134l270.67-270.662c-19.981-19.985-32.325-40.052-52.31-20.063l-77.448,77.448
	c-13.126,13.122-15.843,29.856-10.552,45.474L42.653,374.879C51.487,387.586,61.53,399.387,72.613,410.134z"/>
<path style="fill:#CDCCCB;" d="M345.962,136.796c-19.989-19.992-35.004-37.38-54.993-17.392l-77.444,77.451
	c-9.433,9.433,62.937,81.818,72.381,72.374l77.444-77.451C383.339,171.797,365.943,156.777,345.962,136.796z"/>
<path style="fill:#AAAAAA;" d="M345.962,136.796c-19.989-19.992-35.004-37.38-54.993-17.392l-77.444,77.451
	c-4.722,4.715,11.02,25.167,29.107,43.259L345.962,136.796z"/>
<path style="fill:#B2B2B2;" d="M218.378,265.562c-13.25-13.25-17.957-30.035-17.957-30.035l-41.444,42.29
	c-5.1,5.093,41.066,50.866,46.166,45.762l41.833-41.833C246.973,281.749,231.635,278.819,218.378,265.562z"/>
<path style="fill:#8D9091;" d="M217.66,264.851c-12.681-13.119-17.238-29.328-17.238-29.328l-41.444,42.293
	c-2.552,2.552,7.061,14.997,19.061,26.997L217.66,264.851z"/>
<path style="fill:#3D4040;" d="M310.437,74.656l-64.808,90.087c-9.433,9.433,62.944,81.818,72.381,72.381l90.095-64.819
	C428.079,152.332,330.426,54.675,310.437,74.656z"/>
<path style="fill:#343433;" d="M310.437,74.656l-64.808,90.087c-4.64,4.64,10.503,24.505,28.224,42.376l100.415-98.604
	C349.85,84.093,320.435,64.669,310.437,74.656z"/>
<path style="fill:#1D1E1E;" d="M264.806,178.001c-0.797,0-1.602-0.251-2.275-0.775c-1.639-1.257-1.949-3.607-0.692-5.246
	l64.654-84.291c1.254-1.643,3.607-1.949,5.242-0.692c1.639,1.257,1.949,3.607,0.692,5.246l-64.654,84.291
	C267.04,177.495,265.929,178.001,264.806,178.001z"/>
<g>
	<path style="fill:#2E2F2F;" d="M309.839,223.026c-1.123,0-2.234-0.505-2.967-1.463c-1.257-1.639-0.95-3.989,0.688-5.246
		l84.284-64.654c1.643-1.257,3.992-0.947,5.246,0.692c1.257,1.639,0.95,3.989-0.689,5.246l-84.284,64.654
		C311.44,222.775,310.636,223.026,309.839,223.026z"/>
	<path style="fill:#2E2F2F;" d="M294.673,207.868c-1.014,0-2.024-0.412-2.761-1.22c-1.396-1.527-1.287-3.891,0.239-5.287
		l81.612-74.465c1.527-1.396,3.895-1.283,5.283,0.243c1.396,1.527,1.287,3.891-0.239,5.287l-81.612,74.465
		C296.481,207.546,295.575,207.868,294.673,207.868z"/>
</g>
<path style="fill:#1D1E1E;" d="M279.077,192.264c-0.898,0-1.804-0.322-2.522-0.977c-1.527-1.392-1.639-3.76-0.239-5.287
	l74.462-81.612c1.388-1.523,3.764-1.635,5.283-0.243c1.527,1.392,1.639,3.76,0.239,5.287l-74.462,81.612
	C281.102,191.856,280.095,192.264,279.077,192.264z"/>
<g>
</g>
<g>
</g>
<g>
</g>
<g>
</g>
<g>
</g>
<g>
</g>
<g>
</g>
<g>
</g>
<g>
</g>
<g>
</g>
<g>
</g>
<g>
</g>
<g>
</g>
<g>
</g>
<g>
</g>
</svg>
