<?xml version="1.0" encoding="iso-8859-1"?>
<!-- Generator: Adobe Illustrator 19.0.0, SVG Export Plug-In . SVG Version: 6.00 Build 0)  -->
<svg version="1.1" id="Layer_1" xmlns="http://www.w3.org/2000/svg" xmlns:xlink="http://www.w3.org/1999/xlink" x="0px" y="0px"
	 viewBox="0 0 473.931 473.931" style="enable-background:new 0 0 473.931 473.931;" xml:space="preserve">
<circle style="fill:#D42028;" cx="236.966" cy="236.966" r="236.966"/>
<path style="fill:#C52232;" d="M404.518,69.383c92.545,92.541,92.549,242.586,0,335.135
	c-92.545,92.549-242.593,92.549-335.134,0.004L404.518,69.383z"/>
<path style="fill:#B21F2F;" d="M471.54,270.32l-123.28-123.28l-32.43,32.43l-42.405-42.405l-13.096,13.096l-28.688-28.688
	l-99.905,99.905l28.688,28.688l-35.55,35.547l42.409,42.405l-7.484,7.484l23.072,23.075l-20.58,20.583l93.933,93.929
	C366.977,464.165,456.203,379.145,471.54,270.32z"/>
<path style="fill:#FFFFFF;" d="M173.427,123.059c-35.622,14.11-59.816,41.29-66.577,77.903c-4.15,22.499-2.574,47.023,7.353,68.029
	c2.215,4.666,4.868,9.164,8.026,13.321c1.53,2.028,3.173,3.966,4.954,5.807c3.162-1.13,6.211-2.537,9.122-4.183
	c12.041-6.795,20.924-17.268,31.236-26.065c-34.469-39.932,2.058-89.409,47.749-100.44c42.536-10.252,100.186,7.442,113.087,51.21
	c5.336,18.125,1.841,38.162-12.939,51.285c-7.727,6.87-17.541,11.409-27.914,13.257c-6.058,1.074-12.277,1.242-18.402,0.644
	c-3.413-0.344-6.803-0.921-10.144-1.706c-5.658-1.332-10.69-1.137-10.69-7.24c0-15.944,0-31.895,0-47.85c0-7.966,0-15.947,0-23.929
	c0-4.89,0.479-3.97-3.577-4.471c-3.203-0.393-6.398-0.703-9.605-0.958c-11.285-0.883-23.083-1.489-34.275,0.438
	c-4.187,0.722-4.453,0.049-4.453,4.591c0,3.678,0,7.356,0,11.023c0,8.943,0,17.882,0,26.825c0,26.724,2.013,53.762,0.909,80.444
	c-0.322,7.951-0.543,27.034-9.44,30.971c-10.312,4.561-19.431-5.085-28.946-7.094c1.31,13.396-7.072,39.932,8.542,46.693
	c14.316,6.196,30.791,8.505,45.881,3.386c31.622-10.724,41.848-45.915,37.84-74.831c48.811,14.585,101.495-9.815,122.367-53.889
	c14.866-31.386,8.587-70.368-13.792-97.054C317.821,109.173,232.745,99.587,173.427,123.059z"/>
<g>
</g>
<g>
</g>
<g>
</g>
<g>
</g>
<g>
</g>
<g>
</g>
<g>
</g>
<g>
</g>
<g>
</g>
<g>
</g>
<g>
</g>
<g>
</g>
<g>
</g>
<g>
</g>
<g>
</g>
</svg>
